<?xml version="1.0" encoding="utf-8"?>
<!-- Generator: Adobe Illustrator 24.2.0, SVG Export Plug-In . SVG Version: 6.00 Build 0)  -->
<svg version="1.1" id="レイヤー_1" xmlns="http://www.w3.org/2000/svg" xmlns:xlink="http://www.w3.org/1999/xlink" x="0px"
	 y="0px" viewBox="0 0 638 141" style="enable-background:new 0 0 638 141;" xml:space="preserve">
<style type="text/css">
	.st0{fill:none;stroke:#231815;}
	.st1{stroke:#231815;}
</style>
<g>
	<g>
		<path d="M5.46,118.66l10.04-11.52c9.5,9.85,22.68,16.35,36.4,16.35c17.31,0,27.58-8.63,27.58-21.44
			c0-13.47-9.55-17.77-22.01-23.21l-18.95-8.36c-12.29-5.25-26.71-14.57-26.71-33.97C11.81,16.36,29.03,2.98,53,3l57,1v14
			c0,0-56,0-57,0c-14.79,0-24.25,5.71-24.25,17.51c0,12.71,11.5,17.46,21.84,21.83l18.8,8.14c15.27,6.56,27.18,15.66,27.18,35.27
			c0,20.84-17.22,37.49-44.96,37.49C33.09,138.24,16.99,130.69,5.46,118.66z"/>
		<path d="M149.83,18.12h-39.91V3.91h96.6v14.21h-39.91v117.71h-16.79V18.12z"/>
		<path d="M257.23,3.91h18.94l44.63,131.92h-17.78l-23-73.68c-4.74-14.75-8.97-29.23-13.21-44.46H266
			c-4.08,15.3-8.32,29.71-13.06,44.46l-23.26,73.68H212.6L257.23,3.91z M236.06,82.25h60.74v13.4h-60.74V82.25z"/>
		<path d="M339.44,3.91h39.16c26.83,0,45.38,9.12,45.38,32.31c0,13.03-6.94,24.63-19.28,28.65v0.8
			c15.77,3.11,26.83,13.52,26.83,31.57c0,25.92-20.52,38.59-49.93,38.59h-42.16V3.91z M375.76,60.04c22.44,0,31.73-8.27,31.73-21.65
			c0-15.41-10.56-21.17-30.96-21.17h-20.3v42.82H375.76z M379.19,122.51c22.56,0,35.85-8.13,35.85-25.91
			c0-16.25-12.78-23.68-35.85-23.68h-22.96v49.59H379.19z"/>
		<path d="M457.63,3.91h16.79v117.71L555,122v14l-97.37-0.17V3.91z"/>
		<path d="M555.31,3.91h76.04v14.21H572.1v41.34h49.98v14.21H572.1v47.96h61.26v14.21h-78.05V3.91z"/>
	</g>
	<g>
		<path class="st0" d="M5.46,118.66l10.04-11.52c9.5,9.85,22.68,16.35,36.4,16.35c17.31,0,27.58-8.63,27.58-21.44
			c0-13.47-9.55-17.77-22.01-23.21l-18.95-8.36c-12.29-5.25-26.71-14.57-26.71-33.97C11.81,16.36,29.03,2.98,53,3l57,1v14
			c0,0-56,0-57,0c-14.79,0-24.25,5.71-24.25,17.51c0,12.71,11.5,17.46,21.84,21.83l18.8,8.14c15.27,6.56,27.18,15.66,27.18,35.27
			c0,20.84-17.22,37.49-44.96,37.49C33.09,138.24,16.99,130.69,5.46,118.66z"/>
		<path class="st0" d="M149.83,18.12h-39.91V3.91h96.6v14.21h-39.91v117.71h-16.79V18.12z"/>
		<path class="st0" d="M257.23,3.91h18.94l44.63,131.92h-17.78l-23-73.68c-4.74-14.75-8.97-29.23-13.21-44.46H266
			c-4.08,15.3-8.32,29.71-13.06,44.46l-23.26,73.68H212.6L257.23,3.91z M236.06,82.25h60.74v13.4h-60.74V82.25z"/>
		<path class="st0" d="M339.44,3.91h39.16c26.83,0,45.38,9.12,45.38,32.31c0,13.03-6.94,24.63-19.28,28.65v0.8
			c15.77,3.11,26.83,13.52,26.83,31.57c0,25.92-20.52,38.59-49.93,38.59h-42.16V3.91z M375.76,60.04c22.44,0,31.73-8.27,31.73-21.65
			c0-15.41-10.56-21.17-30.96-21.17h-20.3v42.82H375.76z M379.19,122.51c22.56,0,35.85-8.13,35.85-25.91
			c0-16.25-12.78-23.68-35.85-23.68h-22.96v49.59H379.19z"/>
		<path class="st0" d="M457.63,3.91h16.79v117.71L555,122v14l-97.37-0.17V3.91z"/>
		<path class="st0" d="M555.31,3.91h76.04v14.21H572.1v41.34h49.98v14.21H572.1v47.96h61.26v14.21h-78.05V3.91z"/>
	</g>
	<g>
		<path d="M5.46,118.66l10.04-11.52c9.5,9.85,22.68,16.35,36.4,16.35c17.31,0,27.58-8.63,27.58-21.44
			c0-13.47-9.55-17.77-22.01-23.21l-18.95-8.36c-12.29-5.25-26.71-14.57-26.71-33.97C11.81,16.36,29.03,2.98,53,3l57,1v14
			c0,0-56,0-57,0c-14.79,0-24.25,5.71-24.25,17.51c0,12.71,11.5,17.46,21.84,21.83l18.8,8.14c15.27,6.56,27.18,15.66,27.18,35.27
			c0,20.84-17.22,37.49-44.96,37.49C33.09,138.24,16.99,130.69,5.46,118.66z"/>
		<path d="M149.83,18.12h-39.91V3.91h96.6v14.21h-39.91v117.71h-16.79V18.12z"/>
		<path d="M257.23,3.91h18.94l44.63,131.92h-17.78l-23-73.68c-4.74-14.75-8.97-29.23-13.21-44.46H266
			c-4.08,15.3-8.32,29.71-13.06,44.46l-23.26,73.68H212.6L257.23,3.91z M236.06,82.25h60.74v13.4h-60.74V82.25z"/>
		<path d="M339.44,3.91h39.16c26.83,0,45.38,9.12,45.38,32.31c0,13.03-6.94,24.63-19.28,28.65v0.8
			c15.77,3.11,26.83,13.52,26.83,31.57c0,25.92-20.52,38.59-49.93,38.59h-42.16V3.91z M375.76,60.04c22.44,0,31.73-8.27,31.73-21.65
			c0-15.41-10.56-21.17-30.96-21.17h-20.3v42.82H375.76z M379.19,122.51c22.56,0,35.85-8.13,35.85-25.91
			c0-16.25-12.78-23.68-35.85-23.68h-22.96v49.59H379.19z"/>
		<path d="M457.63,3.91h16.79v117.71L555,122v14l-97.37-0.17V3.91z"/>
		<path d="M555.31,3.91h76.04v14.21H572.1v41.34h49.98v14.21H572.1v47.96h61.26v14.21h-78.05V3.91z"/>
	</g>
</g>
</svg>
