<?xml version="1.0" standalone="no"?>
<!DOCTYPE svg PUBLIC "-//W3C//DTD SVG 20010904//EN"
 "http://www.w3.org/TR/2001/REC-SVG-20010904/DTD/svg10.dtd">
<svg version="1.0" xmlns="http://www.w3.org/2000/svg"
 width="260.000000pt" height="260.000000pt" viewBox="0 0 260.000000 260.000000"
 preserveAspectRatio="xMidYMid meet">
<metadata>
Created by potrace 1.11, written by Peter Selinger 2001-2013
</metadata>
<g transform="translate(0.000000,260.000000) scale(0.100000,-0.100000)"
fill="#000000" stroke="none">
<path d="M1025 2401 c-213 -46 -366 -156 -441 -316 -36 -76 -44 -115 -48 -215
-7 -173 68 -331 212 -446 52 -41 216 -129 332 -178 112 -48 329 -146 369 -167
71 -38 146 -113 170 -170 22 -50 30 -143 18 -201 -26 -126 -129 -218 -283
-254 -249 -57 -515 28 -729 233 l-24 22 -53 -62 c-29 -34 -68 -78 -85 -97 -39
-42 -40 -47 -10 -72 12 -11 38 -34 57 -51 115 -104 324 -206 474 -231 247 -42
443 -18 628 75 60 30 100 60 157 117 118 120 174 257 172 427 -2 263 -141 440
-451 575 -52 23 -113 50 -135 60 -22 10 -85 37 -140 60 -294 124 -385 211
-385 366 0 138 83 229 243 266 38 9 246 13 790 13 l737 -1 0 126 0 126 -317 0
c-175 1 -511 4 -748 7 -386 5 -438 4 -510 -12z"/>
</g>
</svg>
